# xmcd
#
# Track frame offsets:
#	150
#	12834
#	26261
#	40263
#	51063
#	61315
#	75992
#	89046
#	99312
#	114580
#	130660
#	139934
#	150987
#	162989
#	175154
#	186885
#
# Disc length: 2667 seconds
#
# Revision: 0
# Processed by: cddbd v1.5.1PL2 Copyright (c) Steve Scherf et al.
# Submitted via: audiograbber 1.83.01
#
DISCID=c00a6910
DTITLE=Various Artist - Complete Country - Disc 2
DYEAR=2005
DGENRE=Country
TTITLE0=Charley Pride - Help Me Make It Through The Night
TTITLE1=George Jones - Almost Persuaded
TTITLE2=Willie Nelson - Good Hearted Woman
TTITLE3=Dolly Parton - Honky Tonk Angels
TTITLE4=Frankie Laine - I Believe
TTITLE5=Lynn Anderson - Faithless Love
TTITLE6=Slim Whitman - Red Sails In The Sunset
TTITLE7=Johnny Paycheck - A-11
TTITLE8=Kenny Rogers - For The Good Times
TTITLE9=Brenda Lee - Coming On Strong
TTITLE10=Faron Young - King Of The Road
TTITLE11=Ricky Valance - Tell Laura I Love Her
TTITLE12=Connie Francis - Among My Souvenirs
TTITLE13=Jim Reeves - Four Walls
TTITLE14=Roger Miller - Little Green Apples
TTITLE15=Rita Coolidge - Mean To Me
EXTD=
EXTT0=
EXTT1=
EXTT2=
EXTT3=
EXTT4=
EXTT5=
EXTT6=
EXTT7=
EXTT8=
EXTT9=
EXTT10=
EXTT11=
EXTT12=
EXTT13=
EXTT14=
EXTT15=
PLAYORDER=
